<svg width="128" height="128" viewBox="0 0 128 128" fill="none" xmlns="http://www.w3.org/2000/svg">
  <defs>
    <linearGradient id="volt-bg" x1="18" y1="12" x2="112" y2="118" gradientUnits="userSpaceOnUse">
      <stop stop-color="#112035" />
      <stop offset="0.58" stop-color="#18314D" />
      <stop offset="1" stop-color="#0C7D93" />
    </linearGradient>
    <linearGradient id="volt-paper" x1="36" y1="26" x2="90" y2="96" gradientUnits="userSpaceOnUse">
      <stop stop-color="#FFFDF7" />
      <stop offset="1" stop-color="#DCE6F1" />
    </linearGradient>
    <linearGradient id="volt-bolt" x1="53" y1="42" x2="79" y2="88" gradientUnits="userSpaceOnUse">
      <stop stop-color="#8FF3FF" />
      <stop offset="1" stop-color="#2EAADC" />
    </linearGradient>
  </defs>

  <rect x="8" y="8" width="112" height="112" rx="28" fill="url(#volt-bg)" />
  <rect
    x="8.75"
    y="8.75"
    width="110.5"
    height="110.5"
    rx="27.25"
    stroke="#FFFFFF"
    stroke-opacity="0.14"
    stroke-width="1.5"
  />

  <path
    d="M41 24H74.5L94 43.5V92C94 99.1797 88.1797 105 81 105H41C33.8203 105 28 99.1797 28 92V37C28 29.8203 33.8203 24 41 24Z"
    fill="url(#volt-paper)"
  />
  <path d="M74 24V39C74 43.9706 78.0294 48 83 48H94L74 24Z" fill="#C3D5E8" />

  <path
    d="M53.5 44C52.2892 44 51.5143 45.2959 52.091 46.3605L61.8421 64.3605C62.1651 64.9568 62.7887 65.3281 63.4668 65.3281H72.358L63.7747 85.0565C63.2548 86.2514 64.7068 87.269 65.6274 86.3549L81.9947 70.1049C82.8015 69.3037 82.2341 67.9297 81.0963 67.9297H71.9263L78.4554 52.7184C78.9734 51.5118 77.5199 50.5 76.6029 51.4171L67.5081 60.5119L61.2061 48.8778C60.8943 48.3022 60.2912 47.9434 59.6367 47.9434H53.5V44Z"
    fill="url(#volt-bolt)"
  />

  <path
    d="M42 76H55"
    stroke="#B7C7D8"
    stroke-width="5"
    stroke-linecap="round"
  />
  <path
    d="M42 88H54"
    stroke="#B7C7D8"
    stroke-width="5"
    stroke-linecap="round"
  />
</svg>
